<?xml version="1.0" encoding="utf-8"?>
<svg id="Layer_1" data-name="Layer 1" viewBox="0 0 415.25 484.77" xmlns="http://www.w3.org/2000/svg">
  <defs>
    <style>.cls-1{fill:#1199fa;}</style>
  </defs>
  <path class="cls-1" d="M60.88,68.29c-33.74,55-26.77,118.28,19.77,159.29,19.95,17.59,43.67,32.16,67.84,43.49,66.43,31.12,133.71,60.48,201.23,89.19C386,375.71,417,396,434,433.56c29-40.54,27.84-101.16-2.14-140.47-22-28.9-51.86-47.47-84.36-62-68.32-30.52-136.67-61-205.44-90.47C107.12,125.67,78,105.11,60.88,68.29Z" transform="translate(-39.82 -8.54)" style="opacity: 0.1;"/>
  <path class="cls-1" d="M318.31,8.54V165.29L455.07,86.94Z" transform="translate(-39.82 -8.54)" style="opacity: 0.1;"/>
  <path class="cls-1" d="M42.25,415.12l136.52,78.19V336.82Z" transform="translate(-39.82 -8.54)" style="opacity: 0.1;"/>
</svg>